<mxfile host="app.diagrams.net" agent="Mozilla/5.0 (Windows NT 10.0; Win64; x64) AppleWebKit/537.36 (KHTML, like Gecko) Chrome/137.0.0.0 Safari/537.36 Edg/137.0.0.0" version="27.1.4">
  <diagram name="Страница — 1" id="Z_pauZkXS7t0AU1Tw5mL">
    <mxGraphModel dx="1443" dy="829" grid="1" gridSize="10" guides="1" tooltips="1" connect="1" arrows="1" fold="1" page="1" pageScale="1" pageWidth="827" pageHeight="1169" math="0" shadow="0">
      <root>
        <mxCell id="0" />
        <mxCell id="1" parent="0" />
        <mxCell id="5aOu-kDIlNZFqt_HR4Ut-28" style="edgeStyle=orthogonalEdgeStyle;rounded=0;orthogonalLoop=1;jettySize=auto;html=1;entryX=0.5;entryY=0;entryDx=0;entryDy=0;" edge="1" parent="1" source="7MsEQUMzbARziqOLfGt7-1" target="7MsEQUMzbARziqOLfGt7-29">
          <mxGeometry relative="1" as="geometry" />
        </mxCell>
        <mxCell id="5aOu-kDIlNZFqt_HR4Ut-34" style="edgeStyle=orthogonalEdgeStyle;rounded=0;orthogonalLoop=1;jettySize=auto;html=1;entryX=1;entryY=0.5;entryDx=0;entryDy=0;" edge="1" parent="1" source="7MsEQUMzbARziqOLfGt7-1" target="5aOu-kDIlNZFqt_HR4Ut-33">
          <mxGeometry relative="1" as="geometry" />
        </mxCell>
        <mxCell id="7MsEQUMzbARziqOLfGt7-1" value="&lt;div&gt;Battery&amp;nbsp;&lt;/div&gt;&lt;div&gt;&lt;span style=&quot;background-color: transparent; color: light-dark(rgb(0, 0, 0), rgb(255, 255, 255));&quot;&gt;LiFePo4 48v&amp;nbsp;&lt;/span&gt;&lt;span style=&quot;background-color: transparent; color: light-dark(rgb(0, 0, 0), rgb(255, 255, 255));&quot;&gt;72Ah&lt;/span&gt;&lt;/div&gt;" style="rounded=1;whiteSpace=wrap;html=1;" parent="1" vertex="1">
          <mxGeometry x="684" y="60" width="120" height="40" as="geometry" />
        </mxCell>
        <mxCell id="7MsEQUMzbARziqOLfGt7-31" style="edgeStyle=orthogonalEdgeStyle;rounded=0;orthogonalLoop=1;jettySize=auto;html=1;entryX=0;entryY=0.5;entryDx=0;entryDy=0;exitX=0;exitY=0.5;exitDx=0;exitDy=0;" parent="1" source="7MsEQUMzbARziqOLfGt7-2" target="7MsEQUMzbARziqOLfGt7-18" edge="1">
          <mxGeometry relative="1" as="geometry" />
        </mxCell>
        <mxCell id="7MsEQUMzbARziqOLfGt7-35" style="edgeStyle=orthogonalEdgeStyle;rounded=0;orthogonalLoop=1;jettySize=auto;html=1;entryX=0;entryY=0.5;entryDx=0;entryDy=0;exitX=0;exitY=0.5;exitDx=0;exitDy=0;" parent="1" source="7MsEQUMzbARziqOLfGt7-2" target="7MsEQUMzbARziqOLfGt7-21" edge="1">
          <mxGeometry relative="1" as="geometry" />
        </mxCell>
        <mxCell id="7MsEQUMzbARziqOLfGt7-36" style="edgeStyle=orthogonalEdgeStyle;rounded=0;orthogonalLoop=1;jettySize=auto;html=1;entryX=0;entryY=0.5;entryDx=0;entryDy=0;exitX=0;exitY=0.5;exitDx=0;exitDy=0;" parent="1" source="7MsEQUMzbARziqOLfGt7-2" target="7MsEQUMzbARziqOLfGt7-22" edge="1">
          <mxGeometry relative="1" as="geometry" />
        </mxCell>
        <mxCell id="7MsEQUMzbARziqOLfGt7-40" style="edgeStyle=orthogonalEdgeStyle;rounded=0;orthogonalLoop=1;jettySize=auto;html=1;entryX=0;entryY=0.5;entryDx=0;entryDy=0;exitX=0;exitY=0.5;exitDx=0;exitDy=0;" parent="1" source="7MsEQUMzbARziqOLfGt7-2" target="7MsEQUMzbARziqOLfGt7-37" edge="1">
          <mxGeometry relative="1" as="geometry" />
        </mxCell>
        <mxCell id="7MsEQUMzbARziqOLfGt7-41" style="edgeStyle=orthogonalEdgeStyle;rounded=0;orthogonalLoop=1;jettySize=auto;html=1;entryX=0;entryY=0.5;entryDx=0;entryDy=0;exitX=0;exitY=0.5;exitDx=0;exitDy=0;" parent="1" source="7MsEQUMzbARziqOLfGt7-2" target="7MsEQUMzbARziqOLfGt7-38" edge="1">
          <mxGeometry relative="1" as="geometry" />
        </mxCell>
        <mxCell id="7MsEQUMzbARziqOLfGt7-42" style="edgeStyle=orthogonalEdgeStyle;rounded=0;orthogonalLoop=1;jettySize=auto;html=1;entryX=0;entryY=0.5;entryDx=0;entryDy=0;exitX=0;exitY=0.5;exitDx=0;exitDy=0;" parent="1" source="7MsEQUMzbARziqOLfGt7-2" target="7MsEQUMzbARziqOLfGt7-39" edge="1">
          <mxGeometry relative="1" as="geometry" />
        </mxCell>
        <mxCell id="5aOu-kDIlNZFqt_HR4Ut-27" style="edgeStyle=orthogonalEdgeStyle;rounded=0;orthogonalLoop=1;jettySize=auto;html=1;entryX=0.5;entryY=1;entryDx=0;entryDy=0;" edge="1" parent="1" source="7MsEQUMzbARziqOLfGt7-2" target="7MsEQUMzbARziqOLfGt7-29">
          <mxGeometry relative="1" as="geometry" />
        </mxCell>
        <mxCell id="7MsEQUMzbARziqOLfGt7-2" value="&lt;div&gt;&lt;span style=&quot;background-color: transparent; color: light-dark(rgb(0, 0, 0), rgb(255, 255, 255));&quot;&gt;Controller&amp;nbsp;&lt;/span&gt;&lt;/div&gt;&lt;div&gt;&lt;span style=&quot;background-color: transparent; color: light-dark(rgb(0, 0, 0), rgb(255, 255, 255));&quot;&gt;48v 3000w&lt;/span&gt;&lt;/div&gt;" style="rounded=1;whiteSpace=wrap;html=1;" parent="1" vertex="1">
          <mxGeometry x="704" y="190" width="80" height="40" as="geometry" />
        </mxCell>
        <mxCell id="7MsEQUMzbARziqOLfGt7-16" style="edgeStyle=orthogonalEdgeStyle;rounded=0;orthogonalLoop=1;jettySize=auto;html=1;exitX=0;exitY=1;exitDx=0;exitDy=0;entryX=0;entryY=0;entryDx=0;entryDy=0;" parent="1" source="7MsEQUMzbARziqOLfGt7-4" target="7MsEQUMzbARziqOLfGt7-8" edge="1">
          <mxGeometry relative="1" as="geometry">
            <Array as="points" />
          </mxGeometry>
        </mxCell>
        <mxCell id="5aOu-kDIlNZFqt_HR4Ut-23" style="edgeStyle=orthogonalEdgeStyle;rounded=0;orthogonalLoop=1;jettySize=auto;html=1;" edge="1" parent="1" source="5aOu-kDIlNZFqt_HR4Ut-35" target="7MsEQUMzbARziqOLfGt7-7">
          <mxGeometry relative="1" as="geometry" />
        </mxCell>
        <mxCell id="7MsEQUMzbARziqOLfGt7-4" value="&lt;div&gt;Battery&amp;nbsp;&lt;span style=&quot;background-color: transparent; color: light-dark(rgb(0, 0, 0), rgb(255, 255, 255));&quot;&gt;12v 84&lt;/span&gt;&lt;span style=&quot;background-color: transparent; color: light-dark(rgb(0, 0, 0), rgb(255, 255, 255));&quot;&gt;Ah&lt;/span&gt;&lt;/div&gt;" style="rounded=1;whiteSpace=wrap;html=1;" parent="1" vertex="1">
          <mxGeometry x="24" y="195" width="110" height="20" as="geometry" />
        </mxCell>
        <mxCell id="7MsEQUMzbARziqOLfGt7-5" value="DC -&amp;gt; AC&amp;nbsp;&lt;span style=&quot;background-color: transparent; color: light-dark(rgb(0, 0, 0), rgb(255, 255, 255));&quot;&gt;Inverter 700w&lt;/span&gt;" style="rounded=1;whiteSpace=wrap;html=1;" parent="1" vertex="1">
          <mxGeometry x="184" y="510" width="140" height="20" as="geometry" />
        </mxCell>
        <mxCell id="7MsEQUMzbARziqOLfGt7-6" value="&lt;div&gt;Jet Fan 60w&lt;/div&gt;" style="rounded=1;whiteSpace=wrap;html=1;" parent="1" vertex="1">
          <mxGeometry x="184" y="480" width="80" height="20" as="geometry" />
        </mxCell>
        <mxCell id="7MsEQUMzbARziqOLfGt7-49" style="edgeStyle=orthogonalEdgeStyle;rounded=0;orthogonalLoop=1;jettySize=auto;html=1;entryX=0;entryY=0.75;entryDx=0;entryDy=0;" parent="1" source="7MsEQUMzbARziqOLfGt7-7" target="7MsEQUMzbARziqOLfGt7-47" edge="1">
          <mxGeometry relative="1" as="geometry" />
        </mxCell>
        <mxCell id="7MsEQUMzbARziqOLfGt7-50" style="edgeStyle=orthogonalEdgeStyle;rounded=0;orthogonalLoop=1;jettySize=auto;html=1;entryX=0;entryY=0.5;entryDx=0;entryDy=0;" parent="1" source="7MsEQUMzbARziqOLfGt7-7" target="7MsEQUMzbARziqOLfGt7-46" edge="1">
          <mxGeometry relative="1" as="geometry" />
        </mxCell>
        <mxCell id="7MsEQUMzbARziqOLfGt7-51" style="edgeStyle=orthogonalEdgeStyle;rounded=0;orthogonalLoop=1;jettySize=auto;html=1;entryX=0;entryY=0.5;entryDx=0;entryDy=0;" parent="1" source="7MsEQUMzbARziqOLfGt7-7" target="7MsEQUMzbARziqOLfGt7-45" edge="1">
          <mxGeometry relative="1" as="geometry" />
        </mxCell>
        <mxCell id="7MsEQUMzbARziqOLfGt7-52" style="edgeStyle=orthogonalEdgeStyle;rounded=0;orthogonalLoop=1;jettySize=auto;html=1;entryX=0;entryY=0.5;entryDx=0;entryDy=0;" parent="1" source="7MsEQUMzbARziqOLfGt7-7" target="7MsEQUMzbARziqOLfGt7-44" edge="1">
          <mxGeometry relative="1" as="geometry" />
        </mxCell>
        <mxCell id="7MsEQUMzbARziqOLfGt7-53" style="edgeStyle=orthogonalEdgeStyle;rounded=0;orthogonalLoop=1;jettySize=auto;html=1;entryX=0;entryY=0.75;entryDx=0;entryDy=0;" parent="1" source="7MsEQUMzbARziqOLfGt7-7" target="7MsEQUMzbARziqOLfGt7-43" edge="1">
          <mxGeometry relative="1" as="geometry" />
        </mxCell>
        <mxCell id="7MsEQUMzbARziqOLfGt7-54" style="edgeStyle=orthogonalEdgeStyle;rounded=0;orthogonalLoop=1;jettySize=auto;html=1;entryX=0;entryY=0.25;entryDx=0;entryDy=0;" parent="1" source="7MsEQUMzbARziqOLfGt7-7" target="7MsEQUMzbARziqOLfGt7-10" edge="1">
          <mxGeometry relative="1" as="geometry" />
        </mxCell>
        <mxCell id="5aOu-kDIlNZFqt_HR4Ut-8" style="edgeStyle=orthogonalEdgeStyle;rounded=0;orthogonalLoop=1;jettySize=auto;html=1;entryX=0;entryY=0.5;entryDx=0;entryDy=0;" edge="1" parent="1" source="7MsEQUMzbARziqOLfGt7-7" target="5aOu-kDIlNZFqt_HR4Ut-7">
          <mxGeometry relative="1" as="geometry" />
        </mxCell>
        <mxCell id="5aOu-kDIlNZFqt_HR4Ut-21" style="edgeStyle=orthogonalEdgeStyle;rounded=0;orthogonalLoop=1;jettySize=auto;html=1;entryX=0;entryY=0.25;entryDx=0;entryDy=0;" edge="1" parent="1" source="7MsEQUMzbARziqOLfGt7-7" target="7MsEQUMzbARziqOLfGt7-9">
          <mxGeometry relative="1" as="geometry" />
        </mxCell>
        <mxCell id="7MsEQUMzbARziqOLfGt7-7" value="Outer Bus&amp;nbsp;&lt;span style=&quot;background-color: transparent; color: light-dark(rgb(0, 0, 0), rgb(255, 255, 255));&quot;&gt;12v&lt;/span&gt;" style="rounded=1;whiteSpace=wrap;html=1;" parent="1" vertex="1">
          <mxGeometry x="344" y="240" width="90" height="20" as="geometry" />
        </mxCell>
        <mxCell id="5aOu-kDIlNZFqt_HR4Ut-10" style="edgeStyle=orthogonalEdgeStyle;rounded=0;orthogonalLoop=1;jettySize=auto;html=1;entryX=0;entryY=0.5;entryDx=0;entryDy=0;" edge="1" parent="1" source="7MsEQUMzbARziqOLfGt7-8" target="5aOu-kDIlNZFqt_HR4Ut-1">
          <mxGeometry relative="1" as="geometry" />
        </mxCell>
        <mxCell id="5aOu-kDIlNZFqt_HR4Ut-12" style="edgeStyle=orthogonalEdgeStyle;rounded=0;orthogonalLoop=1;jettySize=auto;html=1;entryX=0;entryY=0.5;entryDx=0;entryDy=0;" edge="1" parent="1" source="7MsEQUMzbARziqOLfGt7-8" target="5aOu-kDIlNZFqt_HR4Ut-3">
          <mxGeometry relative="1" as="geometry" />
        </mxCell>
        <mxCell id="5aOu-kDIlNZFqt_HR4Ut-14" style="edgeStyle=orthogonalEdgeStyle;rounded=0;orthogonalLoop=1;jettySize=auto;html=1;entryX=0;entryY=0.5;entryDx=0;entryDy=0;" edge="1" parent="1" source="7MsEQUMzbARziqOLfGt7-8" target="5aOu-kDIlNZFqt_HR4Ut-5">
          <mxGeometry relative="1" as="geometry" />
        </mxCell>
        <mxCell id="5aOu-kDIlNZFqt_HR4Ut-15" style="edgeStyle=orthogonalEdgeStyle;rounded=0;orthogonalLoop=1;jettySize=auto;html=1;entryX=0;entryY=0.5;entryDx=0;entryDy=0;" edge="1" parent="1" source="7MsEQUMzbARziqOLfGt7-8" target="5aOu-kDIlNZFqt_HR4Ut-6">
          <mxGeometry relative="1" as="geometry" />
        </mxCell>
        <mxCell id="5aOu-kDIlNZFqt_HR4Ut-18" style="edgeStyle=orthogonalEdgeStyle;rounded=0;orthogonalLoop=1;jettySize=auto;html=1;entryX=0;entryY=0.5;entryDx=0;entryDy=0;" edge="1" parent="1" source="7MsEQUMzbARziqOLfGt7-8" target="5aOu-kDIlNZFqt_HR4Ut-16">
          <mxGeometry relative="1" as="geometry" />
        </mxCell>
        <mxCell id="5aOu-kDIlNZFqt_HR4Ut-20" style="edgeStyle=orthogonalEdgeStyle;rounded=0;orthogonalLoop=1;jettySize=auto;html=1;entryX=0;entryY=0.5;entryDx=0;entryDy=0;" edge="1" parent="1" source="7MsEQUMzbARziqOLfGt7-8" target="5aOu-kDIlNZFqt_HR4Ut-19">
          <mxGeometry relative="1" as="geometry" />
        </mxCell>
        <mxCell id="5aOu-kDIlNZFqt_HR4Ut-25" style="edgeStyle=orthogonalEdgeStyle;rounded=0;orthogonalLoop=1;jettySize=auto;html=1;entryX=0;entryY=0.5;entryDx=0;entryDy=0;" edge="1" parent="1" source="7MsEQUMzbARziqOLfGt7-8" target="7MsEQUMzbARziqOLfGt7-5">
          <mxGeometry relative="1" as="geometry" />
        </mxCell>
        <mxCell id="5aOu-kDIlNZFqt_HR4Ut-26" style="edgeStyle=orthogonalEdgeStyle;rounded=0;orthogonalLoop=1;jettySize=auto;html=1;entryX=0;entryY=0.5;entryDx=0;entryDy=0;" edge="1" parent="1" source="7MsEQUMzbARziqOLfGt7-8" target="7MsEQUMzbARziqOLfGt7-6">
          <mxGeometry relative="1" as="geometry" />
        </mxCell>
        <mxCell id="5aOu-kDIlNZFqt_HR4Ut-31" style="edgeStyle=orthogonalEdgeStyle;rounded=0;orthogonalLoop=1;jettySize=auto;html=1;entryX=0;entryY=0.5;entryDx=0;entryDy=0;" edge="1" parent="1" source="7MsEQUMzbARziqOLfGt7-8" target="5aOu-kDIlNZFqt_HR4Ut-2">
          <mxGeometry relative="1" as="geometry" />
        </mxCell>
        <mxCell id="7MsEQUMzbARziqOLfGt7-8" value="Inner Bus&amp;nbsp;&lt;span style=&quot;background-color: transparent; color: light-dark(rgb(0, 0, 0), rgb(255, 255, 255));&quot;&gt;12v&lt;/span&gt;" style="rounded=1;whiteSpace=wrap;html=1;" parent="1" vertex="1">
          <mxGeometry x="24" y="240" width="110" height="20" as="geometry" />
        </mxCell>
        <mxCell id="7MsEQUMzbARziqOLfGt7-9" value="Window Blade" style="rounded=1;whiteSpace=wrap;html=1;" parent="1" vertex="1">
          <mxGeometry x="484" y="445" width="90" height="20" as="geometry" />
        </mxCell>
        <mxCell id="7MsEQUMzbARziqOLfGt7-10" value="Signal Horn" style="rounded=1;whiteSpace=wrap;html=1;" parent="1" vertex="1">
          <mxGeometry x="484" y="385" width="80" height="20" as="geometry" />
        </mxCell>
        <mxCell id="7MsEQUMzbARziqOLfGt7-18" value="&lt;div&gt;Throttle&lt;/div&gt;" style="rounded=1;whiteSpace=wrap;html=1;" parent="1" vertex="1">
          <mxGeometry x="704" y="250" width="80" height="20" as="geometry" />
        </mxCell>
        <mxCell id="5aOu-kDIlNZFqt_HR4Ut-29" style="edgeStyle=orthogonalEdgeStyle;rounded=0;orthogonalLoop=1;jettySize=auto;html=1;entryX=0.5;entryY=0;entryDx=0;entryDy=0;" edge="1" parent="1" source="7MsEQUMzbARziqOLfGt7-19" target="7MsEQUMzbARziqOLfGt7-1">
          <mxGeometry relative="1" as="geometry" />
        </mxCell>
        <mxCell id="7MsEQUMzbARziqOLfGt7-19" value="&lt;div&gt;Charger 220v&lt;/div&gt;" style="rounded=1;whiteSpace=wrap;html=1;" parent="1" vertex="1">
          <mxGeometry x="704" y="20" width="80" height="20" as="geometry" />
        </mxCell>
        <mxCell id="7MsEQUMzbARziqOLfGt7-21" value="Gears 1-3" style="rounded=1;whiteSpace=wrap;html=1;" parent="1" vertex="1">
          <mxGeometry x="704" y="280" width="80" height="20" as="geometry" />
        </mxCell>
        <mxCell id="7MsEQUMzbARziqOLfGt7-22" value="&lt;div&gt;Reverse&lt;/div&gt;" style="rounded=1;whiteSpace=wrap;html=1;" parent="1" vertex="1">
          <mxGeometry x="704" y="310" width="80" height="20" as="geometry" />
        </mxCell>
        <mxCell id="5aOu-kDIlNZFqt_HR4Ut-40" style="edgeStyle=orthogonalEdgeStyle;rounded=0;orthogonalLoop=1;jettySize=auto;html=1;entryX=0.5;entryY=0;entryDx=0;entryDy=0;" edge="1" parent="1" source="7MsEQUMzbARziqOLfGt7-23" target="7MsEQUMzbARziqOLfGt7-25">
          <mxGeometry relative="1" as="geometry" />
        </mxCell>
        <mxCell id="7MsEQUMzbARziqOLfGt7-23" value="&lt;div&gt;Solar Panel 250w 40v&lt;/div&gt;" style="rounded=1;whiteSpace=wrap;html=1;" parent="1" vertex="1">
          <mxGeometry x="484" y="20" width="160" height="20" as="geometry" />
        </mxCell>
        <mxCell id="5aOu-kDIlNZFqt_HR4Ut-30" style="edgeStyle=orthogonalEdgeStyle;rounded=0;orthogonalLoop=1;jettySize=auto;html=1;entryX=0;entryY=0.5;entryDx=0;entryDy=0;" edge="1" parent="1" source="7MsEQUMzbARziqOLfGt7-25" target="7MsEQUMzbARziqOLfGt7-1">
          <mxGeometry relative="1" as="geometry" />
        </mxCell>
        <mxCell id="7MsEQUMzbARziqOLfGt7-25" value="&lt;div&gt;Solar Boost Controller&amp;nbsp;&lt;/div&gt;&lt;div&gt;to 58.4v&lt;/div&gt;" style="rounded=1;whiteSpace=wrap;html=1;" parent="1" vertex="1">
          <mxGeometry x="484" y="60" width="160" height="40" as="geometry" />
        </mxCell>
        <mxCell id="7MsEQUMzbARziqOLfGt7-29" value="&lt;div&gt;&lt;span style=&quot;background-color: transparent; color: light-dark(rgb(0, 0, 0), rgb(255, 255, 255));&quot;&gt;Motor 48v 1200&lt;/span&gt;&lt;span style=&quot;background-color: transparent; color: light-dark(rgb(0, 0, 0), rgb(255, 255, 255));&quot;&gt;w&lt;/span&gt;&lt;/div&gt;" style="rounded=1;whiteSpace=wrap;html=1;" parent="1" vertex="1">
          <mxGeometry x="694" y="140" width="100" height="20" as="geometry" />
        </mxCell>
        <mxCell id="7MsEQUMzbARziqOLfGt7-37" value="&lt;div&gt;Lock&lt;/div&gt;" style="rounded=1;whiteSpace=wrap;html=1;" parent="1" vertex="1">
          <mxGeometry x="704" y="340" width="80" height="20" as="geometry" />
        </mxCell>
        <mxCell id="7MsEQUMzbARziqOLfGt7-38" value="&lt;div&gt;Alarm&lt;/div&gt;" style="rounded=1;whiteSpace=wrap;html=1;" parent="1" vertex="1">
          <mxGeometry x="704" y="370" width="80" height="20" as="geometry" />
        </mxCell>
        <mxCell id="7MsEQUMzbARziqOLfGt7-39" value="&lt;div&gt;Stop / Break&lt;/div&gt;" style="rounded=1;whiteSpace=wrap;html=1;" parent="1" vertex="1">
          <mxGeometry x="704" y="400" width="80" height="20" as="geometry" />
        </mxCell>
        <mxCell id="7MsEQUMzbARziqOLfGt7-43" value="Turns" style="rounded=1;whiteSpace=wrap;html=1;" parent="1" vertex="1">
          <mxGeometry x="484" y="235" width="80" height="20" as="geometry" />
        </mxCell>
        <mxCell id="7MsEQUMzbARziqOLfGt7-44" value="Head Light" style="rounded=1;whiteSpace=wrap;html=1;" parent="1" vertex="1">
          <mxGeometry x="484" y="265" width="80" height="20" as="geometry" />
        </mxCell>
        <mxCell id="7MsEQUMzbARziqOLfGt7-45" value="Second Light" style="rounded=1;whiteSpace=wrap;html=1;" parent="1" vertex="1">
          <mxGeometry x="484" y="295" width="80" height="20" as="geometry" />
        </mxCell>
        <mxCell id="7MsEQUMzbARziqOLfGt7-46" value="Breaks" style="rounded=1;whiteSpace=wrap;html=1;" parent="1" vertex="1">
          <mxGeometry x="484" y="325" width="80" height="20" as="geometry" />
        </mxCell>
        <mxCell id="7MsEQUMzbARziqOLfGt7-47" value="LED strips" style="rounded=1;whiteSpace=wrap;html=1;" parent="1" vertex="1">
          <mxGeometry x="484" y="355" width="80" height="20" as="geometry" />
        </mxCell>
        <mxCell id="7MsEQUMzbARziqOLfGt7-58" style="edgeStyle=orthogonalEdgeStyle;rounded=0;orthogonalLoop=1;jettySize=auto;html=1;entryX=0.5;entryY=0;entryDx=0;entryDy=0;" parent="1" source="7MsEQUMzbARziqOLfGt7-56" target="7MsEQUMzbARziqOLfGt7-57" edge="1">
          <mxGeometry relative="1" as="geometry" />
        </mxCell>
        <mxCell id="7MsEQUMzbARziqOLfGt7-56" value="&lt;div&gt;Solar Panel 60w 40v&lt;/div&gt;" style="rounded=1;whiteSpace=wrap;html=1;" parent="1" vertex="1">
          <mxGeometry x="144" y="110" width="160" height="20" as="geometry" />
        </mxCell>
        <mxCell id="5aOu-kDIlNZFqt_HR4Ut-24" style="edgeStyle=orthogonalEdgeStyle;rounded=0;orthogonalLoop=1;jettySize=auto;html=1;entryX=0.5;entryY=0;entryDx=0;entryDy=0;" edge="1" parent="1" source="7MsEQUMzbARziqOLfGt7-57" target="7MsEQUMzbARziqOLfGt7-4">
          <mxGeometry relative="1" as="geometry" />
        </mxCell>
        <mxCell id="7MsEQUMzbARziqOLfGt7-57" value="&lt;div&gt;Solar 12v Controller&amp;nbsp;&lt;/div&gt;" style="rounded=1;whiteSpace=wrap;html=1;" parent="1" vertex="1">
          <mxGeometry x="144" y="150" width="160" height="20" as="geometry" />
        </mxCell>
        <mxCell id="7MsEQUMzbARziqOLfGt7-62" style="edgeStyle=orthogonalEdgeStyle;rounded=0;orthogonalLoop=1;jettySize=auto;html=1;entryX=1;entryY=0.5;entryDx=0;entryDy=0;" parent="1" source="7MsEQUMzbARziqOLfGt7-61" target="7MsEQUMzbARziqOLfGt7-57" edge="1">
          <mxGeometry relative="1" as="geometry" />
        </mxCell>
        <mxCell id="7MsEQUMzbARziqOLfGt7-61" value="&lt;div&gt;Charger 220v&lt;/div&gt;" style="rounded=1;whiteSpace=wrap;html=1;" parent="1" vertex="1">
          <mxGeometry x="344" y="150" width="80" height="20" as="geometry" />
        </mxCell>
        <mxCell id="5aOu-kDIlNZFqt_HR4Ut-1" value="Roof LED" style="rounded=1;whiteSpace=wrap;html=1;" vertex="1" parent="1">
          <mxGeometry x="184" y="240" width="80" height="20" as="geometry" />
        </mxCell>
        <mxCell id="5aOu-kDIlNZFqt_HR4Ut-2" value="LED Stripes" style="rounded=1;whiteSpace=wrap;html=1;" vertex="1" parent="1">
          <mxGeometry x="184" y="270" width="80" height="20" as="geometry" />
        </mxCell>
        <mxCell id="5aOu-kDIlNZFqt_HR4Ut-3" value="Dot LED" style="rounded=1;whiteSpace=wrap;html=1;" vertex="1" parent="1">
          <mxGeometry x="184" y="300" width="80" height="20" as="geometry" />
        </mxCell>
        <mxCell id="5aOu-kDIlNZFqt_HR4Ut-4" value="Camera [3]" style="rounded=1;whiteSpace=wrap;html=1;" vertex="1" parent="1">
          <mxGeometry x="184" y="330" width="80" height="20" as="geometry" />
        </mxCell>
        <mxCell id="5aOu-kDIlNZFqt_HR4Ut-5" value="Display 14&quot;" style="rounded=1;whiteSpace=wrap;html=1;" vertex="1" parent="1">
          <mxGeometry x="184" y="360" width="80" height="20" as="geometry" />
        </mxCell>
        <mxCell id="5aOu-kDIlNZFqt_HR4Ut-6" value="USB Chrg 18w" style="rounded=1;whiteSpace=wrap;html=1;" vertex="1" parent="1">
          <mxGeometry x="184" y="390" width="100" height="20" as="geometry" />
        </mxCell>
        <mxCell id="5aOu-kDIlNZFqt_HR4Ut-7" value="Border Dots" style="rounded=1;whiteSpace=wrap;html=1;" vertex="1" parent="1">
          <mxGeometry x="484" y="415" width="80" height="20" as="geometry" />
        </mxCell>
        <mxCell id="5aOu-kDIlNZFqt_HR4Ut-13" style="edgeStyle=orthogonalEdgeStyle;rounded=0;orthogonalLoop=1;jettySize=auto;html=1;entryX=0;entryY=0.633;entryDx=0;entryDy=0;entryPerimeter=0;" edge="1" parent="1" source="7MsEQUMzbARziqOLfGt7-8" target="5aOu-kDIlNZFqt_HR4Ut-4">
          <mxGeometry relative="1" as="geometry" />
        </mxCell>
        <mxCell id="5aOu-kDIlNZFqt_HR4Ut-16" value="Water Pump 5w" style="rounded=1;whiteSpace=wrap;html=1;" vertex="1" parent="1">
          <mxGeometry x="184" y="420" width="100" height="20" as="geometry" />
        </mxCell>
        <mxCell id="5aOu-kDIlNZFqt_HR4Ut-19" value="Water Pump 60w" style="rounded=1;whiteSpace=wrap;html=1;" vertex="1" parent="1">
          <mxGeometry x="184" y="450" width="100" height="20" as="geometry" />
        </mxCell>
        <mxCell id="5aOu-kDIlNZFqt_HR4Ut-32" value="" style="endArrow=none;dashed=1;html=1;dashPattern=1 3;strokeWidth=2;rounded=0;entryX=1;entryY=0.5;entryDx=0;entryDy=0;exitX=0;exitY=0.5;exitDx=0;exitDy=0;" edge="1" parent="1" source="7MsEQUMzbARziqOLfGt7-39" target="7MsEQUMzbARziqOLfGt7-46">
          <mxGeometry width="50" height="50" relative="1" as="geometry">
            <mxPoint x="394" y="320" as="sourcePoint" />
            <mxPoint x="444" y="270" as="targetPoint" />
            <Array as="points">
              <mxPoint x="644" y="410" />
              <mxPoint x="624" y="335" />
            </Array>
          </mxGeometry>
        </mxCell>
        <mxCell id="5aOu-kDIlNZFqt_HR4Ut-38" style="edgeStyle=orthogonalEdgeStyle;rounded=0;orthogonalLoop=1;jettySize=auto;html=1;entryX=1;entryY=0.5;entryDx=0;entryDy=0;exitX=0.5;exitY=1;exitDx=0;exitDy=0;" edge="1" parent="1" source="5aOu-kDIlNZFqt_HR4Ut-33" target="5aOu-kDIlNZFqt_HR4Ut-35">
          <mxGeometry relative="1" as="geometry" />
        </mxCell>
        <mxCell id="5aOu-kDIlNZFqt_HR4Ut-33" value="&lt;div&gt;DC Buck 12v&lt;/div&gt;" style="rounded=1;whiteSpace=wrap;html=1;" vertex="1" parent="1">
          <mxGeometry x="484" y="150" width="160" height="20" as="geometry" />
        </mxCell>
        <mxCell id="5aOu-kDIlNZFqt_HR4Ut-36" value="" style="edgeStyle=orthogonalEdgeStyle;rounded=0;orthogonalLoop=1;jettySize=auto;html=1;" edge="1" parent="1" source="7MsEQUMzbARziqOLfGt7-4" target="5aOu-kDIlNZFqt_HR4Ut-35">
          <mxGeometry relative="1" as="geometry">
            <mxPoint x="134" y="205" as="sourcePoint" />
            <mxPoint x="389" y="240" as="targetPoint" />
          </mxGeometry>
        </mxCell>
        <mxCell id="5aOu-kDIlNZFqt_HR4Ut-35" value="Hard Switch" style="rounded=1;whiteSpace=wrap;html=1;" vertex="1" parent="1">
          <mxGeometry x="344" y="195" width="90" height="20" as="geometry" />
        </mxCell>
      </root>
    </mxGraphModel>
  </diagram>
</mxfile>
